{
  "asset": {
    "version": "2.0",
    "generator": "ANDPAD BIM sample"
  },
  "scene": 0,
  "scenes": [
    {
      "name": "AndpadSample",
      "nodes": [
        0
      ]
    }
  ],
  "nodes": [
    {
      "name": "SampleBuilding",
      "mesh": 0
    }
  ],
  "meshes": [
    {
      "name": "BuildingCube",
      "primitives": [
        {
          "attributes": {
            "POSITION": 0,
            "COLOR_0": 1
          },
          "indices": 2,
          "mode": 4,
          "material": 0
        }
      ]
    }
  ],
  "materials": [
    {
      "name": "AndpadBlue",
      "pbrMetallicRoughness": {
        "baseColorFactor": [
          0.25,
          0.45,
          0.85,
          1.0
        ],
        "metallicFactor": 0.1,
        "roughnessFactor": 0.6
      },
      "doubleSided": true
    }
  ],
  "accessors": [
    {
      "bufferView": 0,
      "componentType": 5126,
      "count": 8,
      "type": "VEC3",
      "min": [
        -0.6,
        -0.4,
        -0.5
      ],
      "max": [
        0.6,
        0.8,
        0.5
      ]
    },
    {
      "bufferView": 1,
      "componentType": 5126,
      "count": 8,
      "type": "VEC3"
    },
    {
      "bufferView": 2,
      "componentType": 5123,
      "count": 36,
      "type": "SCALAR"
    }
  ],
  "bufferViews": [
    {
      "buffer": 0,
      "byteOffset": 0,
      "byteLength": 96,
      "target": 34962
    },
    {
      "buffer": 0,
      "byteOffset": 96,
      "byteLength": 96,
      "target": 34962
    },
    {
      "buffer": 0,
      "byteOffset": 192,
      "byteLength": 72,
      "target": 34963
    }
  ],
  "buffers": [
    {
      "byteLength": 264,
      "uri": "andpad-sample.bin"
    }
  ]
}
